<svg width="18" height="18" viewBox="0 0 18 18" fill="none" xmlns="http://www.w3.org/2000/svg">
<path d="M0.263184 1.73639C0.264802 1.49987 0.357706 1.2735 0.521827 1.10617C0.685947 0.938845 0.908109 0.843992 1.14032 0.842106H17.0703C17.5548 0.842106 17.9474 1.24287 17.9474 1.73639V16.1584C17.9458 16.3949 17.8529 16.6212 17.6888 16.7886C17.5246 16.9559 17.3025 17.0507 17.0703 17.0526H1.14032C0.907608 17.0524 0.684507 16.9581 0.520037 16.7904C0.355568 16.6227 0.263183 16.3954 0.263184 16.1584V1.73639ZM2.0316 2.64328V15.2515H16.179V2.64328H2.0316ZM3.80003 4.44444H9.10529V9.84795H3.80003V4.44444ZM5.56845 6.24561V8.04678H7.33687V6.24561H5.56845ZM3.80003 11.6491H14.4106V13.4503H3.80003V11.6491ZM10.8737 4.44444H14.4106V6.24561H10.8737V4.44444ZM10.8737 8.04678H14.4106V9.84795H10.8737V8.04678Z" fill="#0C3146"/>
</svg>
