<svg width="18" height="19" viewBox="0 0 18 19" fill="none" xmlns="http://www.w3.org/2000/svg">
<path d="M6.93897 9.24211C6.41133 9.24211 5.9053 9.0325 5.5322 8.6594C5.1591 8.2863 4.9495 7.78027 4.9495 7.25263C4.9495 6.72499 5.1591 6.21896 5.5322 5.84586C5.9053 5.47276 6.41133 5.26316 6.93897 5.26316C7.46661 5.26316 7.97264 5.47276 8.34574 5.84586C8.71884 6.21896 8.92845 6.72499 8.92845 7.25263C8.92845 7.78027 8.71884 8.2863 8.34574 8.6594C7.97264 9.0325 7.46661 9.24211 6.93897 9.24211ZM7.33687 16.5351V13.5747C7.33687 13.1432 7.46419 12.7462 7.69409 12.3917C6.90596 12.2795 6.10311 12.3331 5.33684 12.5488C4.57056 12.7645 3.85772 13.1377 3.24386 13.6446C4.21036 15.0749 5.66583 16.103 7.33687 16.536V16.5351ZM2.43215 12.0362C3.72353 11.0805 5.28822 10.5659 6.89476 10.5684C7.81699 10.5684 8.7012 10.7347 9.51821 11.0388C10.2946 10.7355 11.2203 10.5684 12.2 10.5684C13.6678 10.5684 15.0162 10.9433 15.919 11.5906C16.2175 10.5206 16.2597 9.3953 16.0424 8.30592C15.825 7.21654 15.3541 6.19366 14.6679 5.32013C13.9816 4.4466 13.0993 3.74698 12.0923 3.27791C11.0853 2.80885 9.98207 2.58354 8.87182 2.62023C7.76157 2.65691 6.67557 2.95456 5.70176 3.48908C4.72796 4.02359 3.89373 4.77993 3.26664 5.69686C2.63954 6.61379 2.23722 7.66551 2.09224 8.76687C1.94726 9.86822 2.06371 10.9882 2.43215 12.0362ZM15.1878 13.2971C14.8403 12.8258 13.6775 12.3368 12.2 12.3368C10.4263 12.3368 9.10529 13.0416 9.10529 13.5747V16.7579C10.3324 16.7586 11.5386 16.4398 12.6052 15.833C13.6719 15.2263 14.5622 14.3523 15.1887 13.2971H15.1878ZM9.10529 18.5263C4.22179 18.5263 0.263184 14.5677 0.263184 9.68421C0.263184 4.80072 4.22179 0.842106 9.10529 0.842106C13.9888 0.842106 17.9474 4.80072 17.9474 9.68421C17.9474 14.5677 13.9888 18.5263 9.10529 18.5263ZM12.2 10.1263C11.731 10.1263 11.2812 9.94 10.9496 9.60836C10.6179 9.27671 10.4316 8.82691 10.4316 8.35789C10.4316 7.88888 10.6179 7.43908 10.9496 7.10743C11.2812 6.77579 11.731 6.58947 12.2 6.58947C12.669 6.58947 13.1188 6.77579 13.4505 7.10743C13.7821 7.43908 13.9684 7.88888 13.9684 8.35789C13.9684 8.82691 13.7821 9.27671 13.4505 9.60836C13.1188 9.94 12.669 10.1263 12.2 10.1263Z" fill="#0C3146"/>
</svg>
